<svg xmlns="http://www.w3.org/2000/svg" width="24.59" height="22.663" viewBox="0 0 24.59 22.663">
  <g id="Group_3" transform="translate(-26.739)">
    <g id="Group_2" transform="translate(26.739)">
      <path id="Path_6" d="M2.9,0,13.987,1.445l-2.628,9.2Z" transform="translate(-2.769)" fill="#cb2155"/>
      <path id="Path_7" d="M202.618,32.9l8.242,10.956-9.51,4.558-1.183-4.821a7.173,7.173,0,0,1,.177-3.113Z" transform="translate(-191.005 -31.409)" fill="#cb2155"/>
      <path id="Path_8" d="M380.368,163.87l-3.068-4.3,5.17-.874Z" transform="translate(-360.205 -151.51)" fill="#9f0010"/>
      <path id="Path_9" d="M481.675,158.6l1.93,2.062h-2.8Z" transform="translate(-459.015 -151.414)" fill="#9f0010"/>
      <path id="Path_10" d="M265.1,286.4l7.848-3.9-.263.92Z" transform="translate(-253.088 -269.701)" fill="#cd231e"/>
      <path id="Path_11" d="M120.289,256.4,117,267.446l5-3.946Z" transform="translate(-111.699 -244.783)" fill="#8a000b"/>
      <path id="Path_12" d="M4.427,44.678,1.228,40.6,0,40.645Z" transform="translate(0 -38.76)" fill="#9f0010"/>
      <path id="Path_13" d="M200.6,255.5c.027.372.068.607.068.607l1.183,4.821,9.511-4.558-.086-.118Z" transform="translate(-191.511 -243.924)" fill="#b50014"/>
    </g>
  </g>
</svg>
