<svg width="320" height="232" viewBox="0 0 320 232" fill="none" xmlns="http://www.w3.org/2000/svg">
<path d="M187.113 9.41339C130.518 -4.03828 -48.3433 185.02 12.8134 201.085C55.0817 212.192 135.01 122.393 156.15 134.55C175.878 145.89 139.933 191.682 159.242 196.99C191.955 205.997 355.3 28.8734 312.717 5.36506C270.822 -17.7583 222.72 48.5784 209.187 40.8784C195.665 33.1784 203.377 13.2751 187.113 9.41339Z" fill="#F9D3EA"/>
<path d="M262.795 222.668C278.246 222.668 290.772 210.143 290.772 194.692C290.772 179.241 278.246 166.715 262.795 166.715C247.344 166.715 234.818 179.241 234.818 194.692C234.818 210.143 247.344 222.668 262.795 222.668Z" fill="#F9D3EA"/>
<path d="M255.166 175.302C255.096 177.413 253.754 180.143 251.409 182.488C249.076 184.822 246.346 186.175 244.223 186.245C244.293 184.133 245.646 181.403 247.979 179.058C250.313 176.725 253.043 175.372 255.166 175.302Z" fill="#DE87BB"/>
<path d="M279.128 198.6C279.035 201.505 277.192 205.238 273.983 208.435C270.787 211.632 267.042 213.487 264.148 213.58C264.242 210.687 266.085 206.942 269.293 203.745C272.49 200.548 276.223 198.693 279.128 198.6Z" fill="#DE87BB"/>
<path d="M138.195 160.485C138.195 160.485 164.165 167.602 169.544 165.397C174.922 163.192 201.919 115.148 204.8 109.607C207.682 104.065 199.609 84.3018 196.727 74.7118C193.845 65.1101 172.659 60.5134 172.659 60.5134C172.659 60.5134 143.842 60.5834 129.142 104.135C114.442 147.687 138.195 160.485 138.195 160.485Z" fill="#DE87BB"/>
<path d="M178.736 62.2168C175.247 61.0734 172.657 60.5134 172.657 60.5134C172.657 60.5134 160.792 60.5484 148.414 72.0634C154.189 75.1318 162.332 78.3051 165.867 74.1984C169.566 69.8934 175.177 65.0984 178.736 62.2168Z" fill="#240A1A"/>
<path d="M102.39 107.915C96.2536 103.097 97.7119 95.7118 97.7119 95.7118C102.612 87.9534 111.175 88.3151 113.999 92.6668C116.834 97.0301 102.39 107.915 102.39 107.915Z" fill="#240A1A"/>
<path d="M166.428 129.463C163.955 131.937 160.606 131.318 157.771 128.355C157.76 128.495 157.083 137.175 149.29 144.98C141.438 152.855 135.173 162.853 136.9 169.807C137.471 172.117 139.128 174.882 141.135 177.985L141.461 196.045L120.263 191.705L101.153 196.045L90.3031 185.347C83.5481 177.95 76.2098 168.197 76.5714 161.08C77.2248 148.013 110.895 93.7634 110.895 93.7634C110.895 93.7634 111.373 85.9117 116.261 78.0367C123.016 67.1517 135.406 61.855 135.406 61.855C135.406 61.855 143.958 59.4167 152.183 61.3417C160.396 63.2783 170.873 69.2517 179.541 79.5533C188.233 89.8433 172.145 123.747 166.428 129.463Z" fill="url(#paint0_linear_1338_54280)"/>
<path d="M143.761 60.6301C143.761 60.6301 134.031 45.9767 140.144 34.2751C146.258 22.5851 161.494 16.0751 174.269 25.6884C184.384 33.3067 183.159 44.7867 179.951 51.0634C176.743 57.3401 169.428 64.9817 163.268 65.6234" fill="#DE87BB"/>
<path d="M143.76 60.6301L147.948 55.0184C159.848 55.0184 160.035 64.1534 160.035 64.1534" fill="#240A1A"/>
<path d="M173.661 36.2818C173.661 40.4468 165.051 46.4318 161.796 46.3968C158.74 46.3734 148.461 38.4984 138.498 38.9884C138.813 37.3901 139.338 35.8034 140.143 34.2751C143.27 28.2784 148.8 23.6468 155.17 21.8501C167.758 23.6234 173.661 32.3268 173.661 36.2818Z" fill="#5E3F8F"/>
<path d="M162.182 98.6633L169.543 109.607" stroke="#240A1A" stroke-width="1.16667" stroke-miterlimit="10" stroke-linecap="round" stroke-linejoin="round"/>
<path d="M156.92 81.1984C156.92 81.1984 160.957 71.795 169.543 70.045H171.422C172.39 70.045 173.347 70.3134 174.175 70.8034C175.633 71.6784 176.59 73.195 176.765 74.8867L176.94 76.6367C176.94 76.6367 171.293 74.2217 162.193 88.0234" fill="#5E3F8F"/>
<path d="M113.275 75.0968C116.425 69.5784 124.254 61.7851 127.322 61.3301C130.39 60.8751 135.43 61.8434 135.43 61.8434C135.43 61.8434 126.424 65.7401 117.51 80.0901" fill="#5E3F8F"/>
<path d="M157.783 128.355C157.783 128.425 157.573 130.968 156.185 134.503C146.035 114.378 126.33 113.958 126.33 113.958L130.472 107.04C130.472 107.04 143.83 107.857 152.463 115.848C153.233 121.448 155.333 125.788 157.783 128.355Z" fill="#5E3F8F"/>
<path d="M152.428 106.27C151.203 116.537 154.038 124.47 157.771 128.355" stroke="#240A1A" stroke-width="1.16667" stroke-miterlimit="10" stroke-linecap="round" stroke-linejoin="round"/>
<path d="M192.958 78.6783L181.279 95.7934" stroke="#240A1A" stroke-width="1.16667" stroke-miterlimit="10" stroke-linecap="round" stroke-linejoin="round"/>
<path d="M160.223 138.785L167.864 160.275" stroke="#240A1A" stroke-width="1.16667" stroke-miterlimit="10" stroke-linecap="round" stroke-linejoin="round"/>
<path d="M192.959 92.7134L185.469 103.598L194.324 119.103L201.055 107.04L192.959 92.7134Z" fill="url(#paint1_linear_1338_54280)"/>
<path d="M64.963 49.9551C77.2762 49.9551 87.258 39.9733 87.258 27.6601C87.258 15.3469 77.2762 5.36511 64.963 5.36511C52.6498 5.36511 42.668 15.3469 42.668 27.6601C42.668 39.9733 52.6498 49.9551 64.963 49.9551Z" fill="#F9D3EA"/>
<path d="M254.289 172.747C256.179 174.637 254.896 179 251.408 182.488C247.919 185.977 243.556 187.26 241.666 185.37" stroke="#240A1A" stroke-width="1.16667" stroke-miterlimit="10" stroke-linecap="round" stroke-linejoin="round"/>
<path d="M265.338 217.092C262.748 214.502 264.51 208.528 269.293 203.745C274.065 198.973 280.038 197.2 282.64 199.79" stroke="#240A1A" stroke-width="1.16667" stroke-miterlimit="10" stroke-linecap="round" stroke-linejoin="round"/>
<path d="M87.2579 27.4384C81.4596 30.1101 74.8563 32.8167 67.7746 35.3951C60.6929 37.9734 53.8796 40.1317 47.7313 41.8117C32.1096 46.0817 20.6763 47.2367 19.5679 44.1684C18.4479 41.1001 27.9446 34.6367 42.6679 27.8701C42.6796 28.9551 42.7613 30.0284 42.9246 31.0667C36.6013 34.4851 32.9146 37.4717 33.4979 39.0934C34.0929 40.7151 38.8413 40.6334 45.8763 39.1867C51.6863 37.9967 59.0479 35.8617 66.9113 33.0034C74.7746 30.1451 81.7746 27.0417 87.0013 24.2184C93.3246 20.8001 97.0113 17.8134 96.4279 16.1917C95.8329 14.5701 91.0846 14.6517 84.0496 16.0984C83.4896 15.1767 82.8713 14.3017 82.1946 13.4851C97.8163 9.21507 109.25 8.06007 110.358 11.1284C111.478 14.2084 101.981 20.6717 87.2579 27.4384Z" fill="url(#paint2_linear_1338_54280)"/>
<path d="M37.943 155.865C37.943 155.865 38.363 169.818 26.043 169.818C26.043 169.818 37.943 169.667 37.943 184.122C37.943 184.122 36.473 169.993 48.7813 169.993C48.7813 169.993 37.943 169.165 37.943 155.865Z" fill="white"/>
<path d="M259.061 26.6683C259.061 26.6683 249.494 36.83 240.779 28.1267C240.779 28.1267 249.296 36.4333 239.076 46.6533C239.076 46.6533 248.025 35.6167 256.728 44.3317C256.74 44.3317 249.658 36.0717 259.061 26.6683Z" fill="white"/>
<path d="M88.5645 132.462C88.5645 132.462 102.996 129.323 111.548 138.785" stroke="#240A1A" stroke-width="1.16667" stroke-miterlimit="10" stroke-linecap="round" stroke-linejoin="round"/>
<path d="M113.275 134.398C113.275 134.398 132.759 128.005 145.009 149.693" stroke="#240A1A" stroke-width="1.16667" stroke-miterlimit="10" stroke-linecap="round" stroke-linejoin="round"/>
<path d="M80.5391 148.772C80.5391 148.772 92.9291 143.813 106.929 154.103" stroke="#240A1A" stroke-width="1.16667" stroke-miterlimit="10" stroke-linecap="round" stroke-linejoin="round"/>
<path d="M107.838 150.242C107.838 150.242 125.408 142.95 137.576 162.095" stroke="#240A1A" stroke-width="1.16667" stroke-miterlimit="10" stroke-linecap="round" stroke-linejoin="round"/>
<path d="M77.1426 165.315C77.1426 165.315 89.8476 168.628 106.134 165.315" stroke="#240A1A" stroke-width="1.16667" stroke-miterlimit="10" stroke-linecap="round" stroke-linejoin="round"/>
<path d="M106.695 167.812C106.695 167.812 119.062 173.622 136.632 167.812" stroke="#240A1A" stroke-width="1.16667" stroke-miterlimit="10" stroke-linecap="round" stroke-linejoin="round"/>
<path d="M165.426 67.1283C153.456 66.5217 147.634 77.3833 147.634 77.3833L130.473 74.1983C130.473 66.7083 138.546 61.1783 138.546 61.1783C138.546 61.1783 143.376 57.76 153.211 59.58C163.069 61.4117 165.426 67.1283 165.426 67.1283Z" fill="#5E3F8F"/>
<path d="M111.957 105.313L104.28 104.73L100.932 110.388L111.187 111.975" fill="#5E3F8F"/>
<path d="M181.279 149.845C181.279 149.845 185.911 172.385 202.501 172.385C225.519 172.385 228.214 86.4134 249.996 82.7617C271.778 79.11 263.938 112.943 291.366 111.52C291.366 111.52 294.586 115.533 292.626 121.635C290.666 127.737 284.658 128.833 284.658 128.833C256.144 124.295 267.228 90.4267 251.676 95.5717C236.124 100.717 235.296 183.737 203.726 183.737C182.574 183.737 174.279 160.287 174.279 160.287" fill="url(#paint3_linear_1338_54280)"/>
<path d="M289.814 113.538C289.814 113.538 281.764 115.942 285.101 126.442C285.101 126.453 295.216 123.28 289.814 113.538Z" fill="#5E3F8F"/>
<path d="M286.828 115.382C286.828 115.382 295.963 117.54 299.965 109.653" stroke="#240A1A" stroke-width="1.16667" stroke-miterlimit="10" stroke-linecap="round" stroke-linejoin="round"/>
<path d="M284.518 124.178C284.518 124.178 292.754 125.345 294.364 137.128" stroke="#240A1A" stroke-width="1.16667" stroke-miterlimit="10" stroke-linecap="round" stroke-linejoin="round"/>
<path d="M284.32 120.923C284.32 120.923 297.714 122.347 301.715 127.293" stroke="#240A1A" stroke-width="1.16667" stroke-miterlimit="10" stroke-linecap="round" stroke-linejoin="round"/>
<path d="M285.184 117.622C285.184 117.622 294.634 119.838 301.704 117.622" stroke="#240A1A" stroke-width="1.16667" stroke-miterlimit="10" stroke-linecap="round" stroke-linejoin="round"/>
<path d="M184.384 158.665L178.598 168.605" stroke="#240A1A" stroke-width="1.16667" stroke-miterlimit="10" stroke-linecap="round" stroke-linejoin="round"/>
<path d="M191.85 168.605L187.113 177.985" stroke="#240A1A" stroke-width="1.16667" stroke-miterlimit="10" stroke-linecap="round" stroke-linejoin="round"/>
<path d="M201.054 172.327L200.109 183.492" stroke="#240A1A" stroke-width="1.16667" stroke-miterlimit="10" stroke-linecap="round" stroke-linejoin="round"/>
<path d="M209.188 169.678L215.137 179.42" stroke="#240A1A" stroke-width="1.16667" stroke-miterlimit="10" stroke-linecap="round" stroke-linejoin="round"/>
<path d="M215.369 161.29L224.971 165.817" stroke="#240A1A" stroke-width="1.16667" stroke-miterlimit="10" stroke-linecap="round" stroke-linejoin="round"/>
<path d="M220.936 147.885L231.051 150.3" stroke="#240A1A" stroke-width="1.16667" stroke-miterlimit="10" stroke-linecap="round" stroke-linejoin="round"/>
<path d="M225.52 133.103L235.635 134.55" stroke="#240A1A" stroke-width="1.16667" stroke-miterlimit="10" stroke-linecap="round" stroke-linejoin="round"/>
<path d="M230.49 115.93L239.532 119.99" stroke="#240A1A" stroke-width="1.16667" stroke-miterlimit="10" stroke-linecap="round" stroke-linejoin="round"/>
<path d="M236.918 97.625L244.291 105.313" stroke="#240A1A" stroke-width="1.16667" stroke-miterlimit="10" stroke-linecap="round" stroke-linejoin="round"/>
<path d="M249.996 82.75L251.664 95.56" stroke="#240A1A" stroke-width="1.16667" stroke-miterlimit="10" stroke-linecap="round" stroke-linejoin="round"/>
<path d="M281.859 110.283C281.859 110.283 273.062 115.58 275.955 126.022" stroke="#240A1A" stroke-width="1.16667" stroke-miterlimit="10" stroke-linecap="round" stroke-linejoin="round"/>
<path d="M273.109 103.645C273.109 103.645 266.226 107.378 265.152 113.538" stroke="#240A1A" stroke-width="1.16667" stroke-miterlimit="10" stroke-linecap="round" stroke-linejoin="round"/>
<path d="M265.443 90.66L260.182 99.4567" stroke="#240A1A" stroke-width="1.16667" stroke-miterlimit="10" stroke-linecap="round" stroke-linejoin="round"/>
<path d="M119.679 210.57C116.203 217.267 109.319 229.365 99.5545 226.308C89.7895 223.252 93.8495 209.905 101.164 196.045C101.164 196.045 95.9495 191.518 90.3145 185.347C90.5128 185.452 102.459 191.857 112.528 180.248C114.266 183.142 116.191 186.012 118.081 188.683C119.388 190.527 120.683 192.277 121.908 193.875C121.908 193.875 121.908 193.887 121.919 193.887C124.953 197.993 123.156 203.873 119.679 210.57Z" fill="#DE87BB"/>
<path d="M133.284 231.535C120.684 232.095 123.11 215.213 128.792 202.415C128.792 202.415 125.77 198.938 121.932 193.887L121.92 193.875C120.707 192.277 119.412 190.527 118.094 188.683C118.234 188.788 124.417 193.467 133.015 189.523C141.707 185.533 141.147 177.973 141.147 177.973C145.207 184.215 150.714 191.845 151.857 199.977C152.977 207.933 145.884 230.987 133.284 231.535Z" fill="#DE87BB"/>
<path d="M117.545 83.2284C117.148 84.5351 112.026 94.0084 110.906 93.7634C110.218 93.6117 108.142 93.3551 106.672 92.6201C106.66 92.7134 105.971 97.2401 103.965 97.5084C101.935 97.7767 99.3448 97.7417 97.7232 95.7117C96.1015 93.6817 102.857 77.0801 105.213 75.0034C107.302 73.1601 113.648 74.8867 115.562 76.0884C117.463 77.2901 117.941 81.9217 117.545 83.2284Z" fill="#DE87BB"/>
<path d="M106.683 92.6667V92.6201C105.75 92.1534 105.062 91.5001 105.155 90.5551C105.4 88.1401 107.78 88.9101 107.78 88.9101" stroke="#240A1A" stroke-width="1.16667" stroke-miterlimit="10" stroke-linecap="round" stroke-linejoin="round"/>
<path d="M113.274 77.3834L109.109 84.9668" stroke="#240A1A" stroke-width="1.16667" stroke-miterlimit="10" stroke-linecap="round" stroke-linejoin="round"/>
<path d="M156.921 81.1634C153.526 79.985 146.444 83.6017 145.721 85.2934C144.997 86.985 146.666 87.8017 146.619 90.1817C146.572 92.5617 143.621 101.638 145.849 103.073C148.077 104.508 152.382 106.422 154.902 107.017C157.422 107.612 164.154 96.6334 163.711 94.0084C163.256 91.3834 161.564 82.785 156.921 81.1634Z" fill="#DE87BB"/>
<path d="M156.162 84.9667C156.162 84.9667 153.759 97.9283 151.857 100.472" stroke="#240A1A" stroke-width="1.16667" stroke-miterlimit="10" stroke-linecap="round" stroke-linejoin="round"/>
<path d="M113.275 102.723L109.775 109.607L111.187 111.975L126.33 113.947L130.472 107.04L129.142 104.135L113.275 102.723Z" fill="#DE87BB"/>
<path d="M113.893 105.313L112.691 107.915L118.98 108.51L119.855 105.675L113.893 105.313Z" fill="#5E3F8F"/>
<path d="M118.093 188.695C118.093 188.695 115.619 185.16 112.528 180.248C109.343 174.94 106.776 169.585 106.123 165.315C104.116 152.003 117.661 124.412 117.661 124.412" stroke="#240A1A" stroke-width="1.16667" stroke-miterlimit="10" stroke-linecap="round" stroke-linejoin="round"/>
<defs>
<linearGradient id="paint0_linear_1338_54280" x1="76.5586" y1="128.323" x2="182.066" y2="128.323" gradientUnits="userSpaceOnUse">
<stop stop-color="#5E3F8F"/>
<stop offset="1" stop-color="#F24975"/>
</linearGradient>
<linearGradient id="paint1_linear_1338_54280" x1="185.469" y1="105.908" x2="201.055" y2="105.908" gradientUnits="userSpaceOnUse">
<stop stop-color="#5E3F8F"/>
<stop offset="1" stop-color="#F24975"/>
</linearGradient>
<linearGradient id="paint2_linear_1338_54280" x1="19.4785" y1="27.6484" x2="110.447" y2="27.6484" gradientUnits="userSpaceOnUse">
<stop stop-color="#5E3F8F"/>
<stop offset="1" stop-color="#F24975"/>
</linearGradient>
<linearGradient id="paint3_linear_1338_54280" x1="174.279" y1="133.111" x2="293.259" y2="133.111" gradientUnits="userSpaceOnUse">
<stop stop-color="#5E3F8F"/>
<stop offset="1" stop-color="#F24975"/>
</linearGradient>
</defs>
</svg>
