<svg width="277" height="74" viewBox="0 0 277 74" fill="none" xmlns="http://www.w3.org/2000/svg">
<path d="M195.6 41.1C193 43.8 190.5 46.2 188 48.8C192.4 53.9 197.4 58.2 204.7 58.8C215.8 59.9 225.5 53 228.1 42.3C231.2 29.8 222.2 17 209.3 15.8C202.4 15.1 196.4 17.3 191.5 22.2C184.1 29.6 176.6 37 169.2 44.5C166.8 46.9 164 48.3 160.6 48.3C155.1 48.2 150.3 43.7 150 38.3C149.6 32.5 153.6 27.5 159.2 26.6C162.9 26 166.1 27.2 168.7 29.7C170 30.9 171.2 32.2 172.6 33.7C175.1 31.1 177.5 28.6 180 26.1C174.8 19.9 168.8 15.6 160.3 15.7C149.3 15.9 140 24.7 139.3 35.7C138.5 46.9 146.2 56.8 157.1 58.7C164.5 59.9 170.9 57.9 176.2 52.7C183.9 45.1 191.5 37.4 199.2 29.7C202.3 26.7 206 25.7 210.2 27C214.3 28.3 216.8 31.2 217.7 35.4C218.6 40 216.4 44.7 212.2 47C208.1 49.3 202.9 48.6 199.5 45.3C198.2 43.9 196.9 42.5 195.6 41.1Z" fill="#0D5691"/>
<path d="M31 53.2C30.1 54 29.2 54.7 28.3 55.4C27.3 56.1 26.3 56.7 25.3 57.2C24.2 57.7 23.1 58.1 22 58.4C20.9 58.7 19.7 58.8 18.6 58.8C16 58.8 13.6 58.3 11.4 57.4C9.2 56.5 7.2 55.2 5.5 53.5C3.8 51.8 2.5 49.8 1.5 47.4C0.5 45 0 42.3 0 39.4V16.5H10.5V39.4C10.5 40.8 10.7 42 11.1 43.1C11.5 44.2 12.1 45.1 12.8 45.9C13.5 46.7 14.4 47.2 15.3 47.6C16.3 48 17.3 48.2 18.4 48.2C19.5 48.2 20.5 47.9 21.5 47.4C22.5 46.9 23.3 46.2 24 45.4C24.7 44.6 25.3 43.6 25.7 42.6C26.1 41.6 26.3 40.5 26.3 39.4V16.5H36.9V58H34.3L31 53.2Z" fill="#3C97D3"/>
<path d="M85.2 58H82.6L78.5 52.3C77.5 53.2 76.4 54.1 75.3 54.8C74.2 55.5 73 56.3 71.8 56.9C70.6 57.5 69.3 57.9 68 58.3C66.7 58.6 65.4 58.8 64 58.8C61.1 58.8 58.3 58.3 55.8 57.2C53.2 56.1 51 54.6 49.1 52.6C47.2 50.6 45.7 48.3 44.5 45.7C43.4 43 42.8 40.1 42.8 37C42.8 33.9 43.4 31 44.5 28.3C45.6 25.6 47.1 23.3 49.1 21.3C51 19.3 53.3 17.8 55.8 16.7C58.4 15.6 61.1 15 64 15C64.9 15 65.9 15.1 66.9 15.2C67.9 15.4 68.9 15.6 69.8 16C70.7 16.4 71.6 16.8 72.5 17.4C73.4 18 74 18.7 74.6 19.5V0H85.3V58H85.2ZM74.6 36.9C74.6 35.5 74.3 34.1 73.8 32.7C73.2 31.3 72.5 30.1 71.5 29.1C70.5 28.1 69.4 27.2 68.1 26.6C66.8 26 65.5 25.7 64 25.7C62.6 25.7 61.2 26 59.9 26.5C58.6 27 57.5 27.8 56.6 28.7C55.7 29.7 54.9 30.9 54.4 32.2C53.9 33.5 53.6 35.2 53.6 36.9C53.6 38.4 53.9 39.9 54.4 41.2C54.9 42.5 55.7 43.8 56.6 44.8C57.5 45.8 58.7 46.6 59.9 47.2C61.2 47.8 62.5 48.1 64 48.1C65.4 48.1 66.8 47.8 68.1 47.2C69.4 46.6 70.5 45.7 71.5 44.7C72.5 43.7 73.2 42.5 73.8 41.1C74.3 39.7 74.6 38.3 74.6 36.9Z" fill="#3C97D3"/>
<path d="M133.4 58H130.8L126.7 52.3C125.7 53.2 124.6 54.1 123.5 54.8C122.4 55.5 121.2 56.3 120 56.9C118.8 57.5 117.5 57.9 116.2 58.3C114.9 58.6 113.6 58.8 112.2 58.8C109.3 58.8 106.5 58.3 104 57.2C101.4 56.1 99.2 54.6 97.3 52.6C95.4 50.6 93.9 48.3 92.7 45.7C91.6 42.9 91 40 91 36.9C91 33.8 91.6 30.9 92.7 28.2C93.8 25.5 95.3 23.2 97.3 21.2C99.2 19.2 101.5 17.7 104 16.6C106.6 15.5 109.3 14.9 112.2 14.9C113.1 14.9 114.1 15 115.1 15.1C116.1 15.3 117.1 15.5 118 15.9C118.9 16.3 119.8 16.7 120.7 17.3C121.6 17.9 122.2 18.6 122.8 19.4V0H133.5V58H133.4ZM122.7 36.9C122.7 35.5 122.4 34.1 121.9 32.7C121.3 31.3 120.6 30.1 119.6 29.1C118.6 28.1 117.5 27.2 116.2 26.6C114.9 26 113.6 25.7 112.1 25.7C110.7 25.7 109.3 26 108 26.5C106.7 27 105.6 27.8 104.7 28.7C103.8 29.7 103 30.9 102.5 32.2C102 33.5 101.7 35.2 101.7 36.9C101.7 38.4 102 39.9 102.5 41.2C103 42.5 103.8 43.8 104.7 44.8C105.6 45.8 106.8 46.6 108 47.2C109.3 47.8 110.6 48.1 112.1 48.1C113.5 48.1 114.9 47.8 116.2 47.2C117.5 46.6 118.6 45.7 119.6 44.7C120.6 43.7 121.3 42.5 121.9 41.1C122.5 39.7 122.7 38.3 122.7 36.9Z" fill="#3C97D3"/>
<path d="M276.9 52.8C276.9 55.7 276.3 58.5 275.2 61C274.1 63.6 272.6 65.8 270.6 67.7C268.7 69.6 266.4 71.1 263.9 72.2C261.3 73.3 258.6 73.9 255.7 73.9L250.4 73.8V63.2L255.6 63.3C257.3 63.3 258.7 63.1 259.8 62.7C261 62.3 261.9 61.7 262.7 61C263.5 60.3 264.1 59.4 264.6 58.5C265.1 57.5 265.5 56.5 265.7 55.5C265.3 56.2 264.7 56.7 263.9 57.1C263.1 57.5 262.3 57.9 261.3 58.1C260.4 58.4 259.4 58.6 258.4 58.7C257.4 58.8 256.4 58.9 255.6 58.9C252.7 58.9 249.9 58.4 247.4 57.4C244.8 56.4 242.6 55 240.7 53.1C238.8 51.2 237.3 48.9 236.1 46.2C235 43.5 234.4 40.4 234.4 37C234.4 33.9 235 31 236.1 28.3C237.2 25.6 238.7 23.3 240.7 21.3C242.6 19.3 244.9 17.8 247.4 16.7C250 15.6 252.7 15 255.6 15C256.9 15 258.3 15.2 259.6 15.5C260.9 15.8 262.2 16.3 263.4 16.9C264.6 17.5 265.8 18.2 266.9 19C268 19.8 269.1 20.7 270.1 21.6L274.2 16.7H276.8V52.8H276.9ZM266.3 36.9C266.3 35.5 266 34.1 265.5 32.7C264.9 31.3 264.2 30.1 263.2 29.1C262.2 28.1 261.1 27.2 259.8 26.6C258.5 26 257.2 25.7 255.7 25.7C254.3 25.7 252.9 25.9 251.6 26.4C250.3 26.9 249.2 27.6 248.3 28.6C247.4 29.6 246.6 30.7 246.1 32.1C245.6 33.5 245.3 35.1 245.3 36.9C245.3 38.6 245.6 40.2 246.1 41.6C246.6 43 247.4 44.2 248.3 45.1C249.2 46.1 250.4 46.8 251.6 47.4C252.9 47.9 254.2 48.2 255.7 48.2C257.1 48.2 258.5 47.9 259.8 47.3C261.1 46.7 262.2 45.8 263.2 44.8C264.2 43.8 264.9 42.6 265.5 41.2C266 39.7 266.3 38.3 266.3 36.9Z" fill="#3C97D3"/>
</svg>
